<svg width="307" height="126" viewBox="0 0 307 126" fill="none" xmlns="http://www.w3.org/2000/svg">
<path d="M266.824 5.04401C276.23 5.04401 283.883 12.697 283.883 22.103V103.7C283.883 113.106 276.23 120.759 266.824 120.759H22.103C12.697 120.759 5.04399 113.106 5.04399 103.7V22.103C5.04399 12.697 12.697 5.04401 22.103 5.04401H266.824ZM266.824 0H22.103C9.896 0 0 9.896 0 22.103V103.7C0 115.907 9.896 125.803 22.103 125.803H266.824C279.031 125.803 288.927 115.907 288.927 103.7V22.103C288.927 9.896 279.031 0 266.824 0Z" fill="black"/>
<path d="M23.508 8.21585C23.213 8.21585 22.926 8.24486 22.635 8.25986C13.996 8.71586 7.125 15.8448 7.125 24.5978V101.203C7.125 109.956 13.995 117.085 22.635 117.541V117.585H23.508H27.68V112.541V13.2589V8.21484H23.508V8.21585Z" fill="#4ECDA4"/>
<path d="M294.717 85.476C294.927 85.476 295.132 85.465 295.339 85.459C301.501 85.28 306.401 82.483 306.401 79.048V48.9901C306.401 45.5551 301.501 42.758 295.339 42.579V42.562H294.717H291.742V44.541V83.497V85.476H294.717Z" fill="black"/>
<rect x="30" y="9" width="15" height="109" fill="#4ECDA4" fill-opacity="0.5"/>
<rect x="48" y="9" width="15" height="109" fill="#4ECDA4" fill-opacity="0.14"/>
</svg>
