<svg width="60" height="298" viewBox="0 0 60 298" fill="none" xmlns="http://www.w3.org/2000/svg">
<path d="M55.6129 236.014H4.23694C2.28894 236.014 0.710938 234.435 0.710938 232.488V147.565C0.710938 145.617 2.28994 144.039 4.23694 144.039H55.6129C57.5609 144.039 59.1389 145.618 59.1389 147.565V232.488C59.1399 234.435 57.5609 236.014 55.6129 236.014Z" fill="black"/>
<path d="M50.6161 102.607C50.9061 102.607 51.1421 102.843 51.1421 103.133V172.332C51.1421 172.622 50.9061 172.858 50.6161 172.858H9.22913C8.93913 172.858 8.70312 172.622 8.70312 172.332V103.133C8.70312 102.843 8.93913 102.607 9.22913 102.607H50.6161ZM50.6161 99.6069H9.22913C7.28113 99.6069 5.70312 101.186 5.70312 103.133V172.332C5.70312 174.28 7.28213 175.858 9.22913 175.858H50.6161C52.5641 175.858 54.1421 174.279 54.1421 172.332V103.133C54.1421 101.186 52.5631 99.6069 50.6161 99.6069Z" fill="black"/>
<path d="M36.4984 228.186H23.3594V298.077H36.4984V228.186Z" fill="black"/>
<path d="M20.8889 55.2769L46.1899 22.7079H31.9319L37.8029 0.75293L12.9219 31.0949H29.5559L20.8889 55.2769Z" fill="#4ECDA4"/>
</svg>
