<svg width="460" height="223" viewBox="0 0 460 223" fill="none" xmlns="http://www.w3.org/2000/svg">
<rect width="154.057" height="213.691" rx="14.1988" fill="#1E1E1E"/>
<path d="M93.0049 40.2478L39.4268 101.18C39.1239 101.524 38.8841 101.924 38.7573 102.364C37.1475 107.963 40.5085 111.405 42.9304 112.74C43.3513 112.972 43.8306 113.06 44.3113 113.06H70.5604L49.4481 166.193C49.3248 166.503 49.2426 166.835 49.2212 167.169C48.7361 174.723 54.4258 175.439 58.1627 174.719C58.8476 174.587 59.4418 174.186 59.8927 173.654L112.447 111.64C118.694 105.677 113.945 99.2165 110.317 99.2165H85.1141L104.409 45.8932C104.56 45.4756 104.635 45.0256 104.608 44.5823C104.045 35.1674 97.2998 37.2476 93.6194 39.7021C93.3905 39.8548 93.1866 40.0411 93.0049 40.2478Z" fill="white"/>
<path d="M259.029 37.5H195.529C193.695 36 190.029 31 190.029 23C190.029 15 193.695 11.6667 195.529 11H259.029C278.629 11.8 291.529 26 295.529 33C304.729 53 295.362 70.6667 289.529 77C303.929 87.8 306.529 104.167 306.029 111C304.029 140.6 273.862 149.333 259.029 150H195.529C193.695 148.833 190.029 144.3 190.029 135.5C190.029 126.7 193.695 123.167 195.529 122.5H259.029C264.529 122.333 275.929 119.2 277.529 108C279.129 96.8 265.862 93 259.029 92.5H195.529C193.529 89.6667 189.629 82.6 190.029 77C190.429 71.4 193.862 68 195.529 67H259.029C262.529 66 269.929 61.6 271.529 52C273.129 42.4 263.862 38.3333 259.029 37.5Z" fill="#1E1E1E"/>
<path d="M403.828 24C403.828 32.8 400.161 36.6667 398.328 37.5H365.828L394.828 110L433.828 11H451.328C458.528 12.6 459.995 16.6667 459.828 18.5L407.828 149.5H381.828L330.828 24C326.428 15.2 330.995 11.6667 333.828 11H398.328C400.161 11.6667 403.828 15.2 403.828 24Z" fill="#1E1E1E"/>
<path d="M192.93 185.367H204.375C206.641 185.367 208.327 185.465 209.434 185.66C210.553 185.842 211.549 186.233 212.422 186.832C213.307 187.431 214.043 188.232 214.629 189.234C215.215 190.224 215.508 191.337 215.508 192.574C215.508 193.915 215.143 195.146 214.414 196.266C213.698 197.385 212.721 198.225 211.484 198.785C213.229 199.293 214.57 200.159 215.508 201.383C216.445 202.607 216.914 204.046 216.914 205.699C216.914 207.001 216.608 208.271 215.996 209.508C215.397 210.732 214.57 211.715 213.516 212.457C212.474 213.186 211.185 213.635 209.648 213.805C208.685 213.909 206.361 213.974 202.676 214H192.93V185.367ZM198.711 190.133V196.754H202.5C204.753 196.754 206.152 196.721 206.699 196.656C207.689 196.539 208.464 196.201 209.023 195.641C209.596 195.068 209.883 194.319 209.883 193.395C209.883 192.509 209.635 191.793 209.141 191.246C208.659 190.686 207.936 190.348 206.973 190.23C206.4 190.165 204.753 190.133 202.031 190.133H198.711ZM198.711 201.52V209.176H204.062C206.146 209.176 207.467 209.117 208.027 209C208.887 208.844 209.583 208.466 210.117 207.867C210.664 207.255 210.938 206.441 210.938 205.426C210.938 204.566 210.729 203.837 210.312 203.238C209.896 202.639 209.29 202.203 208.496 201.93C207.715 201.656 206.009 201.52 203.379 201.52H198.711ZM252.437 214H246.148L243.648 207.496H232.202L229.839 214H223.706L234.859 185.367H240.972L252.437 214ZM241.792 202.672L237.847 192.047L233.98 202.672H241.792ZM263.799 214V190.211H255.303V185.367H278.057V190.211H269.58V214H263.799ZM293.052 214V190.211H284.556V185.367H307.31V190.211H298.834V214H293.052ZM323.165 214L312.93 185.367H319.2L326.446 206.559L333.458 185.367H339.591L329.337 214H323.165ZM346.168 199.859C346.168 196.943 346.604 194.495 347.477 192.516C348.128 191.057 349.013 189.749 350.133 188.59C351.266 187.431 352.503 186.572 353.844 186.012C355.628 185.257 357.685 184.879 360.016 184.879C364.234 184.879 367.607 186.188 370.133 188.805C372.672 191.422 373.941 195.061 373.941 199.723C373.941 204.345 372.685 207.965 370.172 210.582C367.659 213.186 364.299 214.488 360.094 214.488C355.836 214.488 352.451 213.193 349.938 210.602C347.424 207.997 346.168 204.417 346.168 199.859ZM352.125 199.664C352.125 202.906 352.874 205.367 354.371 207.047C355.868 208.714 357.77 209.547 360.074 209.547C362.379 209.547 364.267 208.72 365.738 207.066C367.223 205.4 367.965 202.906 367.965 199.586C367.965 196.305 367.242 193.857 365.797 192.242C364.365 190.628 362.457 189.82 360.074 189.82C357.691 189.82 355.771 190.641 354.312 192.281C352.854 193.909 352.125 196.37 352.125 199.664ZM383.429 214V185.602H389.21V209.176H403.585V214H383.429ZM416.002 214V190.211H407.506V185.367H430.26V190.211H421.784V214H416.002Z" fill="#1E1E1E"/>
</svg>
